<?xml version="1.0" encoding="UTF-8" standalone="no"?>
<!DOCTYPE svg PUBLIC "-//W3C//DTD SVG 1.1//EN"
 "http://www.w3.org/Graphics/SVG/1.1/DTD/svg11.dtd">
<!-- Generated by graphviz version 2.40.1 (20161225.0304)
 -->
<!-- Title: %0 Pages: 1 -->
<svg width="119pt" height="54pt"
 viewBox="0.00 0.00 118.72 54.40" xmlns="http://www.w3.org/2000/svg" xmlns:xlink="http://www.w3.org/1999/xlink">
<g id="graph0" class="graph" transform="scale(1 1) rotate(0) translate(4 50.4)">
<title>%0</title>
<polygon fill="#ffffff" stroke="transparent" points="-4,4 -4,-50.4 114.72,-50.4 114.72,4 -4,4"/>
<text text-anchor="middle" x="55.36" y="-28" font-family="Roboto Condensed, sans-serif" font-size="16.00" fill="#000000">@apollo/client</text>
<!-- @apollo/client@latest -->
<g id="node1" class="node">
<title>@apollo/client@latest</title>
<path fill="none" stroke="#000000" d="M101.358,-19.3011C101.358,-19.3011 9.362,-19.3011 9.362,-19.3011 6.1283,-19.3011 2.8947,-16.0674 2.8947,-12.8337 2.8947,-12.8337 2.8947,-6.3663 2.8947,-6.3663 2.8947,-3.1326 6.1283,.1011 9.362,.1011 9.362,.1011 101.358,.1011 101.358,.1011 104.5917,.1011 107.8253,-3.1326 107.8253,-6.3663 107.8253,-6.3663 107.8253,-12.8337 107.8253,-12.8337 107.8253,-16.0674 104.5917,-19.3011 101.358,-19.3011"/>
<text text-anchor="middle" x="55.36" y="-6.3" font-family="Roboto Condensed, sans-serif" font-size="11.00" fill="#000000">@apollo/client@latest</text>
</g>
</g>
</svg>
